<svg width="640" height="640" viewBox="0 0 640 640" fill="none" xmlns="http://www.w3.org/2000/svg">
  <rect width="640" height="640" fill="#FFF6E8"/>
  <rect x="24" y="24" width="592" height="592" fill="url(#bg)"/>
  <path d="M0 514C94 448 173 430 241 436C334 444 383 509 475 514C542 518 596 490 640 458V640H0V514Z" fill="#F6C98E" fill-opacity="0.32"/>
  <circle cx="320" cy="280" r="152" fill="#FFF9F1" stroke="#C66C31" stroke-width="18"/>
  <circle cx="320" cy="280" r="116" fill="#FFF2DA"/>
  <circle cx="320" cy="280" r="79" fill="#FFF9F1"/>
  <path d="M170 154C201 124 248 98 319 98C394 98 443 127 476 160" stroke="#E98939" stroke-width="18" stroke-linecap="round"/>
  <path d="M145 194L110 237C95 256 99 285 119 294L160 312" stroke="#8D522B" stroke-width="16" stroke-linecap="round" stroke-linejoin="round"/>
  <path d="M493 185L528 227C546 249 544 282 523 299L478 335" stroke="#8D522B" stroke-width="16" stroke-linecap="round" stroke-linejoin="round"/>
  <path d="M480 144C511 161 531 196 531 234C531 239 530 244 529 249L447 222L480 144Z" fill="#FFAE45"/>
  <path d="M497 157C516 170 529 190 532 214L476 204L497 157Z" fill="#FFD270"/>
  <path d="M104 335L183 414" stroke="#8D522B" stroke-width="16" stroke-linecap="round"/>
  <path d="M515 353L450 430" stroke="#8D522B" stroke-width="16" stroke-linecap="round"/>
  <path d="M163 454C207 485 259 503 320 503C380 503 434 485 478 454" stroke="#C66C31" stroke-width="18" stroke-linecap="round"/>
  <rect x="138" y="404" width="364" height="98" rx="49" fill="#FFF9F1" stroke="#E8A257" stroke-width="10"/>
  <text x="320" y="443" text-anchor="middle" fill="#F47F2E" font-family="Poppins, Arial, sans-serif" font-size="26" font-weight="800" letter-spacing="4">BUENAJUNTA</text>
  <text x="320" y="476" text-anchor="middle" fill="#5A2F20" font-family="Lilita One, Poppins, Arial, sans-serif" font-size="44" font-weight="900">Sabor para compartir</text>
  <defs>
    <linearGradient id="bg" x1="320" y1="24" x2="320" y2="616" gradientUnits="userSpaceOnUse">
      <stop stop-color="#FFF9F1"/>
      <stop offset="1" stop-color="#FFE7BC"/>
    </linearGradient>
  </defs>
</svg>
